TITLE ""
FILE "LR_black_phrase_B04.mp3" MP3
  TRACK 01 AUDIO
    TITLE "LR_black_phrase_B04_001"
    INDEX 01 00:00:00
  TRACK 02 AUDIO
    TITLE "LR_black_phrase_B04_002"
    INDEX 01 00:00:14
  TRACK 03 AUDIO
    TITLE "LR_black_phrase_B04_003"
    INDEX 01 00:01:37
  TRACK 04 AUDIO
    TITLE "LR_black_phrase_B04_004"
    INDEX 01 00:02:03
  TRACK 05 AUDIO
    TITLE "LR_black_phrase_B04_005"
    INDEX 01 00:03:52
  TRACK 06 AUDIO
    TITLE "LR_black_phrase_B04_006"
    INDEX 01 00:04:49
  TRACK 07 AUDIO
    TITLE "LR_black_phrase_B04_007"
    INDEX 01 00:06:52
  TRACK 08 AUDIO
    TITLE "LR_black_phrase_B04_008"
    INDEX 01 00:07:16
  TRACK 09 AUDIO
    TITLE "LR_black_phrase_B04_009"
    INDEX 01 00:09:48
  TRACK 10 AUDIO
    TITLE "LR_black_phrase_B04_010"
    INDEX 01 00:10:03
  TRACK 11 AUDIO
    TITLE "LR_black_phrase_B04_011"
    INDEX 01 00:12:33
  TRACK 12 AUDIO
    TITLE "LR_black_phrase_B04_012"
    INDEX 01 00:13:36
  TRACK 13 AUDIO
    TITLE "LR_black_phrase_B04_013"
    INDEX 01 00:14:69
  TRACK 14 AUDIO
    TITLE "LR_black_phrase_B04_014"
    INDEX 01 00:15:33
  TRACK 15 AUDIO
    TITLE "LR_black_phrase_B04_015"
    INDEX 01 00:17:70
  TRACK 16 AUDIO
    TITLE "LR_black_phrase_B04_016"
    INDEX 01 00:18:69
  TRACK 17 AUDIO
    TITLE "LR_black_phrase_B04_017"
    INDEX 01 00:21:69
  TRACK 18 AUDIO
    TITLE "LR_black_phrase_B04_018"
    INDEX 01 00:22:37
  TRACK 19 AUDIO
    TITLE "LR_black_phrase_B04_019"
    INDEX 01 00:25:12
  TRACK 20 AUDIO
    TITLE "LR_black_phrase_B04_020"
    INDEX 01 00:25:42
  TRACK 21 AUDIO
    TITLE "LR_black_phrase_B04_021"
    INDEX 01 00:28:18
  TRACK 22 AUDIO
    TITLE "LR_black_phrase_B04_022"
    INDEX 01 00:29:22
  TRACK 23 AUDIO
    TITLE "LR_black_phrase_B04_023"
    INDEX 01 00:30:45
  TRACK 24 AUDIO
    TITLE "LR_black_phrase_B04_024"
    INDEX 01 00:31:09
  TRACK 25 AUDIO
    TITLE "LR_black_phrase_B04_025"
    INDEX 01 00:33:47
  TRACK 26 AUDIO
    TITLE "LR_black_phrase_B04_026"
    INDEX 01 00:34:43
  TRACK 27 AUDIO
    TITLE "LR_black_phrase_B04_027"
    INDEX 01 00:36:12
  TRACK 28 AUDIO
    TITLE "LR_black_phrase_B04_028"
    INDEX 01 00:36:51
  TRACK 29 AUDIO
    TITLE "LR_black_phrase_B04_029"
    INDEX 01 00:38:62
  TRACK 30 AUDIO
    TITLE "LR_black_phrase_B04_030"
    INDEX 01 00:39:16
  TRACK 31 AUDIO
    TITLE "LR_black_phrase_B04_031"
    INDEX 01 00:41:27
  TRACK 32 AUDIO
    TITLE "LR_black_phrase_B04_032"
    INDEX 01 00:42:28
  TRACK 33 AUDIO
    TITLE "LR_black_phrase_B04_033"
    INDEX 01 00:43:28
  TRACK 34 AUDIO
    TITLE "LR_black_phrase_B04_034"
    INDEX 01 00:43:67
  TRACK 35 AUDIO
    TITLE "LR_black_phrase_B04_035"
    INDEX 01 00:46:36
  TRACK 36 AUDIO
    TITLE "LR_black_phrase_B04_036"
    INDEX 01 00:47:35
  TRACK 37 AUDIO
    TITLE "LR_black_phrase_B04_037"
    INDEX 01 00:49:66
  TRACK 38 AUDIO
    TITLE "LR_black_phrase_B04_038"
    INDEX 01 00:50:32
  TRACK 39 AUDIO
    TITLE "LR_black_phrase_B04_039"
    INDEX 01 00:52:54
  TRACK 40 AUDIO
    TITLE "LR_black_phrase_B04_040"
    INDEX 01 00:53:05
  TRACK 41 AUDIO
    TITLE "LR_black_phrase_B04_041"
    INDEX 01 00:55:27
  TRACK 42 AUDIO
    TITLE "LR_black_phrase_B04_042"
    INDEX 01 00:56:25
  TRACK 43 AUDIO
    TITLE "LR_black_phrase_B04_043"
    INDEX 01 00:57:38
  TRACK 44 AUDIO
    TITLE "LR_black_phrase_B04_044"
    INDEX 01 00:57:71
  TRACK 45 AUDIO
    TITLE "LR_black_phrase_B04_045"
    INDEX 01 01:01:43
  TRACK 46 AUDIO
    TITLE "LR_black_phrase_B04_046"
    INDEX 01 01:02:43
  TRACK 47 AUDIO
    TITLE "LR_black_phrase_B04_047"
    INDEX 01 01:05:69
  TRACK 48 AUDIO
    TITLE "LR_black_phrase_B04_048"
    INDEX 01 01:06:27
  TRACK 49 AUDIO
    TITLE "LR_black_phrase_B04_049"
    INDEX 01 01:09:39
  TRACK 50 AUDIO
    TITLE "LR_black_phrase_B04_050"
    INDEX 01 01:09:60
  TRACK 51 AUDIO
    TITLE "LR_black_phrase_B04_051"
    INDEX 01 01:12:71
  TRACK 52 AUDIO
    TITLE "LR_black_phrase_B04_052"
    INDEX 01 01:13:66
  TRACK 53 AUDIO
    TITLE "LR_black_phrase_B04_053"
    INDEX 01 01:15:08
  TRACK 54 AUDIO
    TITLE "LR_black_phrase_B04_054"
    INDEX 01 01:15:41
  TRACK 55 AUDIO
    TITLE "LR_black_phrase_B04_055"
    INDEX 01 01:17:40
  TRACK 56 AUDIO
    TITLE "LR_black_phrase_B04_056"
    INDEX 01 01:18:44
  TRACK 57 AUDIO
    TITLE "LR_black_phrase_B04_057"
    INDEX 01 01:20:74
  TRACK 58 AUDIO
    TITLE "LR_black_phrase_B04_058"
    INDEX 01 01:21:36
  TRACK 59 AUDIO
    TITLE "LR_black_phrase_B04_059"
    INDEX 01 01:23:61
  TRACK 60 AUDIO
    TITLE "LR_black_phrase_B04_060"
    INDEX 01 01:24:11
  TRACK 61 AUDIO
    TITLE "LR_black_phrase_B04_061"
    INDEX 01 01:26:35
  TRACK 62 AUDIO
    TITLE "LR_black_phrase_B04_062"
    INDEX 01 01:27:37
  TRACK 63 AUDIO
    TITLE "LR_black_phrase_B04_063"
    INDEX 01 01:28:68
  TRACK 64 AUDIO
    TITLE "LR_black_phrase_B04_064"
    INDEX 01 01:29:32
  TRACK 65 AUDIO
    TITLE "LR_black_phrase_B04_065"
    INDEX 01 01:31:19
  TRACK 66 AUDIO
    TITLE "LR_black_phrase_B04_066"
    INDEX 01 01:32:18
  TRACK 67 AUDIO
    TITLE "LR_black_phrase_B04_067"
    INDEX 01 01:34:58
  TRACK 68 AUDIO
    TITLE "LR_black_phrase_B04_068"
    INDEX 01 01:35:25
  TRACK 69 AUDIO
    TITLE "LR_black_phrase_B04_069"
    INDEX 01 01:37:69
  TRACK 70 AUDIO
    TITLE "LR_black_phrase_B04_070"
    INDEX 01 01:38:27
  TRACK 71 AUDIO
    TITLE "LR_black_phrase_B04_071"
    INDEX 01 01:40:69
  TRACK 72 AUDIO
    TITLE "LR_black_phrase_B04_072"
    INDEX 01 01:41:74
  TRACK 73 AUDIO
    TITLE "LR_black_phrase_B04_073"
    INDEX 01 01:43:14
  TRACK 74 AUDIO
    TITLE "LR_black_phrase_B04_074"
    INDEX 01 01:43:55
  TRACK 75 AUDIO
    TITLE "LR_black_phrase_B04_075"
    INDEX 01 01:46:48
  TRACK 76 AUDIO
    TITLE "LR_black_phrase_B04_076"
    INDEX 01 01:47:47
  TRACK 77 AUDIO
    TITLE "LR_black_phrase_B04_077"
    INDEX 01 01:50:20
  TRACK 78 AUDIO
    TITLE "LR_black_phrase_B04_078"
    INDEX 01 01:50:57
  TRACK 79 AUDIO
    TITLE "LR_black_phrase_B04_079"
    INDEX 01 01:53:13
  TRACK 80 AUDIO
    TITLE "LR_black_phrase_B04_080"
    INDEX 01 01:53:42
  TRACK 81 AUDIO
    TITLE "LR_black_phrase_B04_081"
    INDEX 01 01:55:72
  TRACK 82 AUDIO
    TITLE "LR_black_phrase_B04_082"
    INDEX 01 01:57:03
  TRACK 83 AUDIO
    TITLE "LR_black_phrase_B04_083"
    INDEX 01 01:58:24
  TRACK 84 AUDIO
    TITLE "LR_black_phrase_B04_084"
    INDEX 01 01:58:63
  TRACK 85 AUDIO
    TITLE "LR_black_phrase_B04_085"
    INDEX 01 02:01:28
  TRACK 86 AUDIO
    TITLE "LR_black_phrase_B04_086"
    INDEX 01 02:02:27
  TRACK 87 AUDIO
    TITLE "LR_black_phrase_B04_087"
    INDEX 01 02:04:07
  TRACK 88 AUDIO
    TITLE "LR_black_phrase_B04_088"
    INDEX 01 02:04:44
  TRACK 89 AUDIO
    TITLE "LR_black_phrase_B04_089"
    INDEX 01 02:06:29
  TRACK 90 AUDIO
    TITLE "LR_black_phrase_B04_090"
    INDEX 01 02:06:56
  TRACK 91 AUDIO
    TITLE "LR_black_phrase_B04_091"
    INDEX 01 02:08:44
  TRACK 92 AUDIO
    TITLE "LR_black_phrase_B04_092"
    INDEX 01 02:09:47
  TRACK 93 AUDIO
    TITLE "LR_black_phrase_B04_093"
    INDEX 01 02:10:62
  TRACK 94 AUDIO
    TITLE "LR_black_phrase_B04_094"
    INDEX 01 02:11:24
  TRACK 95 AUDIO
    TITLE "LR_black_phrase_B04_095"
    INDEX 01 02:12:53
  TRACK 96 AUDIO
    TITLE "LR_black_phrase_B04_096"
    INDEX 01 02:13:53
  TRACK 97 AUDIO
    TITLE "LR_black_phrase_B04_097"
    INDEX 01 02:16:08
  TRACK 98 AUDIO
    TITLE "LR_black_phrase_B04_098"
    INDEX 01 02:16:43
  TRACK 99 AUDIO
    TITLE "LR_black_phrase_B04_099"
    INDEX 01 02:18:54
  TRACK 100 AUDIO
    TITLE "LR_black_phrase_B04_100"
    INDEX 01 02:18:75
  TRACK 101 AUDIO
    TITLE "LR_black_phrase_B04_101"
    INDEX 01 02:21:11
  TRACK 102 AUDIO
    TITLE "LR_black_phrase_B04_102"
    INDEX 01 02:22:07
  TRACK 103 AUDIO
    TITLE "LR_black_phrase_B04_103"
    INDEX 01 02:23:14
  TRACK 104 AUDIO
    TITLE "LR_black_phrase_B04_104"
    INDEX 01 02:23:53
  TRACK 105 AUDIO
    TITLE "LR_black_phrase_B04_105"
    INDEX 01 02:27:14
  TRACK 106 AUDIO
    TITLE "LR_black_phrase_B04_106"
    INDEX 01 02:28:13
  TRACK 107 AUDIO
    TITLE "LR_black_phrase_B04_107"
    INDEX 01 02:32:13
  TRACK 108 AUDIO
    TITLE "LR_black_phrase_B04_108"
    INDEX 01 02:32:46
  TRACK 109 AUDIO
    TITLE "LR_black_phrase_B04_109"
    INDEX 01 02:37:35
  TRACK 110 AUDIO
    TITLE "LR_black_phrase_B04_110"
    INDEX 01 02:37:55
  TRACK 111 AUDIO
    TITLE "LR_black_phrase_B04_111"
    INDEX 01 02:42:44
  TRACK 112 AUDIO
    TITLE "LR_black_phrase_B04_112"
    INDEX 01 02:43:38
  TRACK 113 AUDIO
    TITLE "LR_black_phrase_B04_113"
    INDEX 01 02:44:47
  TRACK 114 AUDIO
    TITLE "LR_black_phrase_B04_114"
    INDEX 01 02:45:08
  TRACK 115 AUDIO
    TITLE "LR_black_phrase_B04_115"
    INDEX 01 02:47:32
  TRACK 116 AUDIO
    TITLE "LR_black_phrase_B04_116"
    INDEX 01 02:48:29
  TRACK 117 AUDIO
    TITLE "LR_black_phrase_B04_117"
    INDEX 01 02:50:60
  TRACK 118 AUDIO
    TITLE "LR_black_phrase_B04_118"
    INDEX 01 02:51:20
  TRACK 119 AUDIO
    TITLE "LR_black_phrase_B04_119"
    INDEX 01 02:53:44
  TRACK 120 AUDIO
    TITLE "LR_black_phrase_B04_120"
    INDEX 01 02:53:66
  TRACK 121 AUDIO
    TITLE "LR_black_phrase_B04_121"
    INDEX 01 02:56:15
  TRACK 122 AUDIO
    TITLE "LR_black_phrase_B04_122"
    INDEX 01 02:57:15
  TRACK 123 AUDIO
    TITLE "LR_black_phrase_B04_123"
    INDEX 01 02:58:40
  TRACK 124 AUDIO
    TITLE "LR_black_phrase_B04_124"
    INDEX 01 02:59:02
  TRACK 125 AUDIO
    TITLE "LR_black_phrase_B04_125"
    INDEX 01 03:01:57
  TRACK 126 AUDIO
    TITLE "LR_black_phrase_B04_126"
    INDEX 01 03:02:57
  TRACK 127 AUDIO
    TITLE "LR_black_phrase_B04_127"
    INDEX 01 03:05:51
  TRACK 128 AUDIO
    TITLE "LR_black_phrase_B04_128"
    INDEX 01 03:06:16
  TRACK 129 AUDIO
    TITLE "LR_black_phrase_B04_129"
    INDEX 01 03:08:58
  TRACK 130 AUDIO
    TITLE "LR_black_phrase_B04_130"
    INDEX 01 03:09:10
  TRACK 131 AUDIO
    TITLE "LR_black_phrase_B04_131"
    INDEX 01 03:11:52
  TRACK 132 AUDIO
    TITLE "LR_black_phrase_B04_132"
    INDEX 01 03:12:55
  TRACK 133 AUDIO
    TITLE "LR_black_phrase_B04_133"
    INDEX 01 03:14:03
  TRACK 134 AUDIO
    TITLE "LR_black_phrase_B04_134"
    INDEX 01 03:14:44
  TRACK 135 AUDIO
    TITLE "LR_black_phrase_B04_135"
    INDEX 01 03:17:41
  TRACK 136 AUDIO
    TITLE "LR_black_phrase_B04_136"
    INDEX 01 03:18:40
  TRACK 137 AUDIO
    TITLE "LR_black_phrase_B04_137"
    INDEX 01 03:20:39
  TRACK 138 AUDIO
    TITLE "LR_black_phrase_B04_138"
    INDEX 01 03:21:05
  TRACK 139 AUDIO
    TITLE "LR_black_phrase_B04_139"
    INDEX 01 03:22:75
  TRACK 140 AUDIO
    TITLE "LR_black_phrase_B04_140"
    INDEX 01 03:23:30
  TRACK 141 AUDIO
    TITLE "LR_black_phrase_B04_141"
    INDEX 01 03:25:25
  TRACK 142 AUDIO
    TITLE "LR_black_phrase_B04_142"
    INDEX 01 03:26:30
  TRACK 143 AUDIO
    TITLE "LR_black_phrase_B04_143"
    INDEX 01 03:27:61
  TRACK 144 AUDIO
    TITLE "LR_black_phrase_B04_144"
    INDEX 01 03:28:27
  TRACK 145 AUDIO
    TITLE "LR_black_phrase_B04_145"
    INDEX 01 03:30:67
  TRACK 146 AUDIO
    TITLE "LR_black_phrase_B04_146"
    INDEX 01 03:31:68
  TRACK 147 AUDIO
    TITLE "LR_black_phrase_B04_147"
    INDEX 01 03:33:34
  TRACK 148 AUDIO
    TITLE "LR_black_phrase_B04_148"
    INDEX 01 03:33:75
  TRACK 149 AUDIO
    TITLE "LR_black_phrase_B04_149"
    INDEX 01 03:35:58
  TRACK 150 AUDIO
    TITLE "LR_black_phrase_B04_150"
    INDEX 01 03:36:13
  TRACK 151 AUDIO
    TITLE "LR_black_phrase_B04_151"
    INDEX 01 03:37:71
  TRACK 152 AUDIO
    TITLE "LR_black_phrase_B04_152"
    INDEX 01 03:38:70
  TRACK 153 AUDIO
    TITLE "LR_black_phrase_B04_153"
    INDEX 01 03:40:20
  TRACK 154 AUDIO
    TITLE "LR_black_phrase_B04_154"
    INDEX 01 03:40:58
  TRACK 155 AUDIO
    TITLE "LR_black_phrase_B04_155"
    INDEX 01 03:42:47
  TRACK 156 AUDIO
    TITLE "LR_black_phrase_B04_156"
    INDEX 01 03:43:44
  TRACK 157 AUDIO
    TITLE "LR_black_phrase_B04_157"
    INDEX 01 03:45:72
  TRACK 158 AUDIO
    TITLE "LR_black_phrase_B04_158"
    INDEX 01 03:46:35
  TRACK 159 AUDIO
    TITLE "LR_black_phrase_B04_159"
    INDEX 01 03:49:17
  TRACK 160 AUDIO
    TITLE "LR_black_phrase_B04_160"
    INDEX 01 03:49:37
  TRACK 161 AUDIO
    TITLE "LR_black_phrase_B04_161"
    INDEX 01 03:52:20
  TRACK 162 AUDIO
    TITLE "LR_black_phrase_B04_162"
    INDEX 01 03:53:15
  TRACK 163 AUDIO
    TITLE "LR_black_phrase_B04_163"
    INDEX 01 03:54:50
  TRACK 164 AUDIO
    TITLE "LR_black_phrase_B04_164"
    INDEX 01 03:55:10
  TRACK 165 AUDIO
    TITLE "LR_black_phrase_B04_165"
    INDEX 01 03:58:32
  TRACK 166 AUDIO
    TITLE "LR_black_phrase_B04_166"
    INDEX 01 03:59:33
  TRACK 167 AUDIO
    TITLE "LR_black_phrase_B04_167"
    INDEX 01 04:02:12
  TRACK 168 AUDIO
    TITLE "LR_black_phrase_B04_168"
    INDEX 01 04:02:45
  TRACK 169 AUDIO
    TITLE "LR_black_phrase_B04_169"
    INDEX 01 04:05:05
  TRACK 170 AUDIO
    TITLE "LR_black_phrase_B04_170"
    INDEX 01 04:05:24
  TRACK 171 AUDIO
    TITLE "LR_black_phrase_B04_171"
    INDEX 01 04:07:58
  TRACK 172 AUDIO
    TITLE "LR_black_phrase_B04_172"
    INDEX 01 04:08:58
  TRACK 173 AUDIO
    TITLE "LR_black_phrase_B04_173"
    INDEX 01 04:09:71
  TRACK 174 AUDIO
    TITLE "LR_black_phrase_B04_174"
    INDEX 01 04:10:31
  TRACK 175 AUDIO
    TITLE "LR_black_phrase_B04_175"
    INDEX 01 04:12:75
  TRACK 176 AUDIO
    TITLE "LR_black_phrase_B04_176"
    INDEX 01 04:13:75
  TRACK 177 AUDIO
    TITLE "LR_black_phrase_B04_177"
    INDEX 01 04:15:34
  TRACK 178 AUDIO
    TITLE "LR_black_phrase_B04_178"
    INDEX 01 04:15:70
  TRACK 179 AUDIO
    TITLE "LR_black_phrase_B04_179"
    INDEX 01 04:17:55
  TRACK 180 AUDIO
    TITLE "LR_black_phrase_B04_180"
    INDEX 01 04:18:01
  TRACK 181 AUDIO
    TITLE "LR_black_phrase_B04_181"
    INDEX 01 04:19:62
  TRACK 182 AUDIO
    TITLE "LR_black_phrase_B04_182"
    INDEX 01 04:20:65
  TRACK 183 AUDIO
    TITLE "LR_black_phrase_B04_183"
    INDEX 01 04:21:74
  TRACK 184 AUDIO
    TITLE "LR_black_phrase_B04_184"
    INDEX 01 04:22:36
  TRACK 185 AUDIO
    TITLE "LR_black_phrase_B04_185"
    INDEX 01 04:23:38
  TRACK 186 AUDIO
    TITLE "LR_black_phrase_B04_186"
    INDEX 01 04:24:37
  TRACK 187 AUDIO
    TITLE "LR_black_phrase_B04_187"
    INDEX 01 04:26:01
  TRACK 188 AUDIO
    TITLE "LR_black_phrase_B04_188"
    INDEX 01 04:26:42
  TRACK 189 AUDIO
    TITLE "LR_black_phrase_B04_189"
    INDEX 01 04:28:68
  TRACK 190 AUDIO
    TITLE "LR_black_phrase_B04_190"
    INDEX 01 04:29:23
  TRACK 191 AUDIO
    TITLE "LR_black_phrase_B04_191"
    INDEX 01 04:31:49
  TRACK 192 AUDIO
    TITLE "LR_black_phrase_B04_192"
    INDEX 01 04:32:52
  TRACK 193 AUDIO
    TITLE "LR_black_phrase_B04_193"
    INDEX 01 04:33:70
  TRACK 194 AUDIO
    TITLE "LR_black_phrase_B04_194"
    INDEX 01 04:34:34
  TRACK 195 AUDIO
    TITLE "LR_black_phrase_B04_195"
    INDEX 01 04:35:61
  TRACK 196 AUDIO
    TITLE "LR_black_phrase_B04_196"
    INDEX 01 04:36:60
  TRACK 197 AUDIO
    TITLE "LR_black_phrase_B04_197"
    INDEX 01 04:39:07
  TRACK 198 AUDIO
    TITLE "LR_black_phrase_B04_198"
    INDEX 01 04:39:45
  TRACK 199 AUDIO
    TITLE "LR_black_phrase_B04_199"
    INDEX 01 04:41:55
  TRACK 200 AUDIO
    TITLE "LR_black_phrase_B04_200"
    INDEX 01 04:42:10
  TRACK 201 AUDIO
    TITLE "LR_black_phrase_B04_201"
    INDEX 01 04:44:20
  TRACK 202 AUDIO
    TITLE "LR_black_phrase_B04_202"
    INDEX 01 04:45:24
  TRACK 203 AUDIO
    TITLE "LR_black_phrase_B04_203"
    INDEX 01 04:46:35
  TRACK 204 AUDIO
    TITLE "LR_black_phrase_B04_204"
    INDEX 01 04:46:74
  TRACK 205 AUDIO
    TITLE "LR_black_phrase_B04_205"
    INDEX 01 04:49:65
  TRACK 206 AUDIO
    TITLE "LR_black_phrase_B04_206"
    INDEX 01 04:50:64
  TRACK 207 AUDIO
    TITLE "LR_black_phrase_B04_207"
    INDEX 01 04:53:13
  TRACK 208 AUDIO
    TITLE "LR_black_phrase_B04_208"
    INDEX 01 04:53:53
  TRACK 209 AUDIO
    TITLE "LR_black_phrase_B04_209"
    INDEX 01 04:56:04
  TRACK 210 AUDIO
    TITLE "LR_black_phrase_B04_210"
    INDEX 01 04:56:35
  TRACK 211 AUDIO
    TITLE "LR_black_phrase_B04_211"
    INDEX 01 04:58:62
  TRACK 212 AUDIO
    TITLE "LR_black_phrase_B04_212"
    INDEX 01 04:59:61
  TRACK 213 AUDIO
    TITLE "LR_black_phrase_B04_213"
    INDEX 01 05:01:17
  TRACK 214 AUDIO
    TITLE "LR_black_phrase_B04_214"
    INDEX 01 05:01:50
  TRACK 215 AUDIO
    TITLE "LR_black_phrase_B04_215"
    INDEX 01 05:04:43
  TRACK 216 AUDIO
    TITLE "LR_black_phrase_B04_216"
    INDEX 01 05:05:42
  TRACK 217 AUDIO
    TITLE "LR_black_phrase_B04_217"
    INDEX 01 05:08:38
  TRACK 218 AUDIO
    TITLE "LR_black_phrase_B04_218"
    INDEX 01 05:08:74
  TRACK 219 AUDIO
    TITLE "LR_black_phrase_B04_219"
    INDEX 01 05:11:37
  TRACK 220 AUDIO
    TITLE "LR_black_phrase_B04_220"
    INDEX 01 05:11:58
  TRACK 221 AUDIO
    TITLE "LR_black_phrase_B04_221"
    INDEX 01 05:14:21
  TRACK 222 AUDIO
    TITLE "LR_black_phrase_B04_222"
    INDEX 01 05:15:17
  TRACK 223 AUDIO
    TITLE "LR_black_phrase_B04_223"
    INDEX 01 05:16:24
  TRACK 224 AUDIO
    TITLE "LR_black_phrase_B04_224"
    INDEX 01 05:16:65
  TRACK 225 AUDIO
    TITLE "LR_black_phrase_B04_225"
    INDEX 01 05:19:23
  TRACK 226 AUDIO
    TITLE "LR_black_phrase_B04_226"
    INDEX 01 05:20:22
  TRACK 227 AUDIO
    TITLE "LR_black_phrase_B04_227"
    INDEX 01 05:21:53
  TRACK 228 AUDIO
    TITLE "LR_black_phrase_B04_228"
    INDEX 01 05:22:13
  TRACK 229 AUDIO
    TITLE "LR_black_phrase_B04_229"
    INDEX 01 05:24:24
  TRACK 230 AUDIO
    TITLE "LR_black_phrase_B04_230"
    INDEX 01 05:24:51
  TRACK 231 AUDIO
    TITLE "LR_black_phrase_B04_231"
    INDEX 01 05:26:64
  TRACK 232 AUDIO
    TITLE "LR_black_phrase_B04_232"
    INDEX 01 05:27:67
  TRACK 233 AUDIO
    TITLE "LR_black_phrase_B04_233"
    INDEX 01 05:29:07
  TRACK 234 AUDIO
    TITLE "LR_black_phrase_B04_234"
    INDEX 01 05:29:43
  TRACK 235 AUDIO
    TITLE "LR_black_phrase_B04_235"
    INDEX 01 05:32:64
  TRACK 236 AUDIO
    TITLE "LR_black_phrase_B04_236"
    INDEX 01 05:33:62
  TRACK 237 AUDIO
    TITLE "LR_black_phrase_B04_237"
    INDEX 01 05:36:19
  TRACK 238 AUDIO
    TITLE "LR_black_phrase_B04_238"
    INDEX 01 05:36:54
  TRACK 239 AUDIO
    TITLE "LR_black_phrase_B04_239"
    INDEX 01 05:39:10
  TRACK 240 AUDIO
    TITLE "LR_black_phrase_B04_240"
    INDEX 01 05:39:31
  TRACK 241 AUDIO
    TITLE "LR_black_phrase_B04_241"
    INDEX 01 05:41:59
  TRACK 242 AUDIO
    TITLE "LR_black_phrase_B04_242"
    INDEX 01 05:42:61
  TRACK 243 AUDIO
    TITLE "LR_black_phrase_B04_243"
    INDEX 01 05:43:60
  TRACK 244 AUDIO
    TITLE "LR_black_phrase_B04_244"
    INDEX 01 05:44:28
  TRACK 245 AUDIO
    TITLE "LR_black_phrase_B04_245"
    INDEX 01 05:47:13
  TRACK 246 AUDIO
    TITLE "LR_black_phrase_B04_246"
    INDEX 01 05:48:14
  TRACK 247 AUDIO
    TITLE "LR_black_phrase_B04_247"
    INDEX 01 05:50:43
  TRACK 248 AUDIO
    TITLE "LR_black_phrase_B04_248"
    INDEX 01 05:51:07
  TRACK 249 AUDIO
    TITLE "LR_black_phrase_B04_249"
    INDEX 01 05:52:71
  TRACK 250 AUDIO
    TITLE "LR_black_phrase_B04_250"
    INDEX 01 05:53:25
  TRACK 251 AUDIO
    TITLE "LR_black_phrase_B04_251"
    INDEX 01 05:55:13
  TRACK 252 AUDIO
    TITLE "LR_black_phrase_B04_252"
    INDEX 01 05:56:18
  TRACK 253 AUDIO
    TITLE "LR_black_phrase_B04_253"
    INDEX 01 05:57:45
  TRACK 254 AUDIO
    TITLE "LR_black_phrase_B04_254"
    INDEX 01 05:58:11
  TRACK 255 AUDIO
    TITLE "LR_black_phrase_B04_255"
    INDEX 01 06:00:37
  TRACK 256 AUDIO
    TITLE "LR_black_phrase_B04_256"
    INDEX 01 06:01:37
  TRACK 257 AUDIO
    TITLE "LR_black_phrase_B04_257"
    INDEX 01 06:03:45
  TRACK 258 AUDIO
    TITLE "LR_black_phrase_B04_258"
    INDEX 01 06:04:10
  TRACK 259 AUDIO
    TITLE "LR_black_phrase_B04_259"
    INDEX 01 06:06:18
  TRACK 260 AUDIO
    TITLE "LR_black_phrase_B04_260"
    INDEX 01 06:06:50
  TRACK 261 AUDIO
    TITLE "LR_black_phrase_B04_261"
    INDEX 01 06:08:54
  TRACK 262 AUDIO
    TITLE "LR_black_phrase_B04_262"
    INDEX 01 06:09:60
  TRACK 263 AUDIO
    TITLE "LR_black_phrase_B04_263"
    INDEX 01 06:11:04
  TRACK 264 AUDIO
    TITLE "LR_black_phrase_B04_264"
    INDEX 01 06:11:43
  TRACK 265 AUDIO
    TITLE "LR_black_phrase_B04_265"
    INDEX 01 06:14:10
  TRACK 266 AUDIO
    TITLE "LR_black_phrase_B04_266"
    INDEX 01 06:15:09
  TRACK 267 AUDIO
    TITLE "LR_black_phrase_B04_267"
    INDEX 01 06:16:48
  TRACK 268 AUDIO
    TITLE "LR_black_phrase_B04_268"
    INDEX 01 06:17:12
  TRACK 269 AUDIO
    TITLE "LR_black_phrase_B04_269"
    INDEX 01 06:19:03
  TRACK 270 AUDIO
    TITLE "LR_black_phrase_B04_270"
    INDEX 01 06:19:33
  TRACK 271 AUDIO
    TITLE "LR_black_phrase_B04_271"
    INDEX 01 06:21:24
  TRACK 272 AUDIO
    TITLE "LR_black_phrase_B04_272"
    INDEX 01 06:22:21
  TRACK 273 AUDIO
    TITLE "LR_black_phrase_B04_273"
    INDEX 01 06:23:36
  TRACK 274 AUDIO
    TITLE "LR_black_phrase_B04_274"
    INDEX 01 06:24:02
  TRACK 275 AUDIO
    TITLE "LR_black_phrase_B04_275"
    INDEX 01 06:25:49
  TRACK 276 AUDIO
    TITLE "LR_black_phrase_B04_276"
    INDEX 01 06:26:50
  TRACK 277 AUDIO
    TITLE "LR_black_phrase_B04_277"
    INDEX 01 06:29:04
  TRACK 278 AUDIO
    TITLE "LR_black_phrase_B04_278"
    INDEX 01 06:29:37
  TRACK 279 AUDIO
    TITLE "LR_black_phrase_B04_279"
    INDEX 01 06:32:18
  TRACK 280 AUDIO
    TITLE "LR_black_phrase_B04_280"
    INDEX 01 06:32:39
  TRACK 281 AUDIO
    TITLE "LR_black_phrase_B04_281"
    INDEX 01 06:35:20
  TRACK 282 AUDIO
    TITLE "LR_black_phrase_B04_282"
    INDEX 01 06:36:17
  TRACK 283 AUDIO
    TITLE "LR_black_phrase_B04_283"
    INDEX 01 06:37:27
  TRACK 284 AUDIO
    TITLE "LR_black_phrase_B04_284"
    INDEX 01 06:37:64
  TRACK 285 AUDIO
    TITLE "LR_black_phrase_B04_285"
    INDEX 01 06:40:11
  TRACK 286 AUDIO
    TITLE "LR_black_phrase_B04_286"
    INDEX 01 06:41:09
  TRACK 287 AUDIO
    TITLE "LR_black_phrase_B04_287"
    INDEX 01 06:43:27
  TRACK 288 AUDIO
    TITLE "LR_black_phrase_B04_288"
    INDEX 01 06:43:63
  TRACK 289 AUDIO
    TITLE "LR_black_phrase_B04_289"
    INDEX 01 06:45:71
  TRACK 290 AUDIO
    TITLE "LR_black_phrase_B04_290"
    INDEX 01 06:46:18
  TRACK 291 AUDIO
    TITLE "LR_black_phrase_B04_291"
    INDEX 01 06:48:26
  TRACK 292 AUDIO
    TITLE "LR_black_phrase_B04_292"
    INDEX 01 06:49:22
  TRACK 293 AUDIO
    TITLE "LR_black_phrase_B04_293"
    INDEX 01 06:50:25
  TRACK 294 AUDIO
    TITLE "LR_black_phrase_B04_294"
    INDEX 01 06:50:59
  TRACK 295 AUDIO
    TITLE "LR_black_phrase_B04_295"
    INDEX 01 06:52:73
  TRACK 296 AUDIO
    TITLE "LR_black_phrase_B04_296"
    INDEX 01 06:53:73
  TRACK 297 AUDIO
    TITLE "LR_black_phrase_B04_297"
    INDEX 01 06:55:42
  TRACK 298 AUDIO
    TITLE "LR_black_phrase_B04_298"
    INDEX 01 06:56:01
  TRACK 299 AUDIO
    TITLE "LR_black_phrase_B04_299"
    INDEX 01 06:58:05
  TRACK 300 AUDIO
    TITLE "LR_black_phrase_B04_300"
    INDEX 01 06:58:23
  TRACK 301 AUDIO
    TITLE "LR_black_phrase_B04_301"
    INDEX 01 07:00:32
